<svg xmlns="http://www.w3.org/2000/svg" width="22.852" height="30" viewBox="0 0 22.852 30">
  <g id="google-docs" transform="translate(-61)">
    <path id="Path_2" data-name="Path 2" d="M83.594,7.289,76.563.258A.88.88,0,0,0,75.941,0h-12.3A2.64,2.64,0,0,0,61,2.637V27.363A2.64,2.64,0,0,0,63.637,30H81.215a2.64,2.64,0,0,0,2.637-2.637V7.91A.887.887,0,0,0,83.594,7.289ZM76.82,3l4.03,4.03H77.7a.88.88,0,0,1-.879-.879Zm4.395,25.241H63.637a.88.88,0,0,1-.879-.879V2.637a.88.88,0,0,1,.879-.879H75.063V6.152A2.64,2.64,0,0,0,77.7,8.789h4.395V27.363A.88.88,0,0,1,81.215,28.242Z" transform="translate(0 0)" fill="#008dd2"/>
    <path id="Path_3" data-name="Path 3" d="M160.237,212h-8.526c-.392,0-.711.481-.711,1.075s.318,1.075.711,1.075h8.526c.392,0,.711-.481.711-1.075S160.629,212,160.237,212Z" transform="translate(-83.548 -199.751)" fill="#008dd2"/>
    <path id="Path_4" data-name="Path 4" d="M160.237,272h-8.526c-.392,0-.711.481-.711,1.075s.318,1.075.711,1.075h8.526c.392,0,.711-.481.711-1.075S160.629,272,160.237,272Z" transform="translate(-83.548 -256.284)" fill="#008dd2"/>
    <path id="Path_5" data-name="Path 5" d="M160.237,332h-8.526c-.392,0-.711.481-.711,1.075s.318,1.075.711,1.075h8.526c.392,0,.711-.481.711-1.075S160.629,332,160.237,332Z" transform="translate(-83.548 -312.818)" fill="#008dd2"/>
    <path id="Path_6" data-name="Path 6" d="M160.678,392h-8.6a1.075,1.075,0,1,0,0,2.151h8.6a1.075,1.075,0,0,0,0-2.151Z" transform="translate(-85.463 -369.351)" fill="#008dd2"/>
  </g>
</svg>
